<svg width="808" height="342" viewBox="0 0 808 342" fill="none" xmlns="http://www.w3.org/2000/svg">
<path d="M117.512 56.4443C117.428 48.5804 115.588 43.0171 111.99 39.7544C108.477 36.4917 103.29 34.8604 96.4297 34.8604C89.6533 34.8604 84.1737 36.91 79.9907 41.0093C75.8078 45.0249 73.2144 50.0863 72.2104 56.1934L117.512 56.4443ZM166.703 124.71C161.516 128.642 152.272 132.072 138.97 135C125.668 138.012 112.743 139.518 100.194 139.518C87.7292 139.518 77.1463 138.932 68.4458 137.761C59.7453 136.59 51.1284 134.498 42.5952 131.486C34.062 128.391 26.7419 124.501 20.6348 119.816C14.6113 115.047 9.71729 108.898 5.95264 101.369C2.18799 93.7562 0.305664 84.6792 0.305664 74.1382C0.305664 63.5135 2.22982 53.7673 6.07812 44.8994C9.92643 36.0316 14.9041 28.8787 21.0112 23.4409C37.994 8.29867 62.5897 0.727539 94.7983 0.727539C110.108 0.727539 124.665 3.6556 138.468 9.51172C152.272 15.5352 162.102 24.5703 167.958 36.6172C171.304 43.3936 172.978 50.881 172.978 59.0796L171.472 79.7852L69.7007 79.2832C71.7085 86.8962 76.5607 92.8778 84.2573 97.228C92.0376 101.578 102.62 103.753 116.006 103.753C129.391 103.753 144.826 100.114 162.311 92.8359H169.087L166.703 124.71ZM419.311 96.3496C418.307 128.642 417.429 152.945 416.676 169.258L377.147 168.756L346.653 169.007L348.787 135H282.78V135.376L262.576 135.627L259.062 168.003L188.413 168.631L194.436 98.9849L195.816 97.73H223.298C224.135 90.9536 225.766 78.2793 228.192 59.707C230.702 41.1348 232.835 24.1102 234.592 8.6333L235.973 7.37842L335.485 6.62549L404.252 5.87256L402.496 72.2559L401.617 96.3496H419.311ZM288.427 97.228H335.485L337.493 48.2876H295.203L288.427 97.228ZM556.219 56.4443C556.135 48.5804 554.295 43.0171 550.697 39.7544C547.184 36.4917 541.997 34.8604 535.137 34.8604C528.36 34.8604 522.881 36.91 518.698 41.0093C514.515 45.0249 511.921 50.0863 510.917 56.1934L556.219 56.4443ZM605.41 124.71C600.223 128.642 590.979 132.072 577.677 135C564.375 138.012 551.45 139.518 538.901 139.518C526.436 139.518 515.853 138.932 507.153 137.761C498.452 136.59 489.835 134.498 481.302 131.486C472.769 128.391 465.449 124.501 459.342 119.816C453.318 115.047 448.424 108.898 444.66 101.369C440.895 93.7562 439.013 84.6792 439.013 74.1382C439.013 63.5135 440.937 53.7673 444.785 44.8994C448.633 36.0316 453.611 28.8787 459.718 23.4409C476.701 8.29867 501.297 0.727539 533.505 0.727539C548.815 0.727539 563.372 3.6556 577.175 9.51172C590.979 15.5352 600.809 24.5703 606.665 36.6172C610.011 43.3936 611.685 50.881 611.685 59.0796L610.179 79.7852L508.408 79.2832C510.416 86.8962 515.268 92.8778 522.964 97.228C530.745 101.578 541.327 103.753 554.713 103.753C568.098 103.753 583.533 100.114 601.018 92.8359H607.794L605.41 124.71ZM752.608 135.376L681.958 136.004L685.095 52.6797H638.916L641.551 11.896V8.6333L642.931 7.37842L805.062 6.62549L807.948 7.88037L804.811 53.3071H757.627L752.608 135.376ZM117.512 228.444C117.428 220.58 115.588 215.017 111.99 211.754C108.477 208.492 103.29 206.86 96.4297 206.86C89.6533 206.86 84.1737 208.91 79.9907 213.009C75.8078 217.025 73.2144 222.086 72.2104 228.193L117.512 228.444ZM166.703 296.71C161.516 300.642 152.272 304.072 138.97 307C125.668 310.012 112.743 311.518 100.194 311.518C87.7292 311.518 77.1463 310.932 68.4458 309.761C59.7453 308.59 51.1284 306.498 42.5952 303.486C34.062 300.391 26.7419 296.501 20.6348 291.816C14.6113 287.047 9.71729 280.898 5.95264 273.369C2.18799 265.756 0.305664 256.679 0.305664 246.138C0.305664 235.514 2.22982 225.767 6.07812 216.899C9.92643 208.032 14.9041 200.879 21.0112 195.441C37.994 180.299 62.5897 172.728 94.7983 172.728C110.108 172.728 124.665 175.656 138.468 181.512C152.272 187.535 162.102 196.57 167.958 208.617C171.304 215.394 172.978 222.881 172.978 231.08L171.472 251.785L69.7007 251.283C71.7085 258.896 76.5607 264.878 84.2573 269.228C92.0376 273.578 102.62 275.753 116.006 275.753C129.391 275.753 144.826 272.114 162.311 264.836H169.087L166.703 296.71ZM419.311 268.35C418.307 300.642 417.429 324.945 416.676 341.258L377.147 340.756L346.653 341.007L348.787 307H282.78V307.376L262.576 307.627L259.062 340.003L188.413 340.631L194.436 270.985L195.816 269.73H223.298C224.135 262.954 225.766 250.279 228.192 231.707C230.702 213.135 232.835 196.11 234.592 180.633L235.973 179.378L335.485 178.625L404.252 177.873L402.496 244.256L401.617 268.35H419.311ZM288.427 269.228H335.485L337.493 220.288H295.203L288.427 269.228ZM579.183 282.781C573.913 291.314 566.216 298.258 556.093 303.612C545.971 308.966 534.802 311.643 522.588 311.643C510.374 311.643 499.707 310.346 490.588 307.753C481.47 305.243 473.02 301.479 465.24 296.459C457.543 291.439 451.352 284.663 446.667 276.13C441.983 267.597 439.64 257.683 439.64 246.389C439.64 235.012 441.732 224.554 445.915 215.017C450.181 205.396 455.912 197.574 463.106 191.551C477.83 179.002 495.775 172.728 516.941 172.728C531.581 172.728 543.544 174.568 552.831 178.249C562.117 181.93 570.315 188.539 577.426 198.076L577.677 171.347L634.398 176.116L634.021 303.988L586.838 307.502L579.183 282.781ZM520.455 224.429C515.602 230.034 513.176 236.768 513.176 244.632C513.176 252.413 515.561 259.189 520.329 264.961C525.098 270.65 531.916 273.495 540.784 273.495C549.652 273.495 556.512 270.985 561.364 265.965C566.3 260.862 568.768 253.877 568.768 245.009C568.768 236.141 566.3 229.072 561.364 223.801C556.428 218.531 549.568 215.896 540.784 215.896C532.083 215.896 525.307 218.74 520.455 224.429Z" fill="black"/>
</svg>
